<svg xmlns="http://www.w3.org/2000/svg" viewBox="-362 288.3 62.9 19"><style>.st0{fill:#ff1965}</style><g id="Layer_4"><path d="M-325.9 296.6l-1.9-3.1h-2v3.1h-1.7v-8.3h4.1c1 0 1.7.2 2.3.6s.8 1 .8 1.8c0 .6-.2 1.1-.5 1.5s-.8.7-1.3.8l2.2 3.5h-2zm-.2-5.7c0-.8-.5-1.2-1.5-1.2h-2.2v2.4h2.3c.5 0 .9-.1 1.1-.3s.3-.5.3-.9zM-320.2 296.7c-1 0-1.7-.3-2.2-.8s-.8-1.4-.8-2.5c0-1 .3-1.9.8-2.4s1.3-.8 2.2-.8c.9 0 1.6.3 2.1.9s.7 1.5.7 2.7h-4.1c0 .6.1 1.1.3 1.4s.6.5 1 .5c.6 0 .9-.3 1.1-.8l1.6.1c-.4 1.1-1.4 1.7-2.7 1.7zm0-5.5c-.4 0-.7.1-.9.4s-.3.6-.3 1.1h2.5c0-.5-.2-.9-.4-1.2s-.6-.3-.9-.3zM-314.7 296.7c-.6 0-1.1-.2-1.4-.5s-.5-.8-.5-1.4c0-.7.2-1.2.6-1.5s1-.5 1.9-.5h1.4v-.3c0-.4-.1-.7-.2-.9s-.4-.3-.7-.3c-.3 0-.5.1-.7.2s-.2.4-.3.7l-1.7-.1c.1-.6.4-1.1.8-1.4s1.1-.5 1.9-.5c.8 0 1.4.2 1.9.6s.7 1 .7 1.7v2.3c0 .4 0 .6.1.7s.2.2.4.2h.4v.9c-.1 0-.2 0-.3.1s-.2 0-.2 0h-.2-.3c-.4 0-.7-.1-.9-.3s-.3-.5-.4-.9c-.7.8-1.4 1.2-2.3 1.2zm1.9-3h-.8c-.4 0-.7.1-.8.1s-.3.2-.4.3-.1.3-.1.6.1.5.2.7.3.2.6.2.5-.1.7-.2.4-.3.5-.6.2-.5.2-.8v-.3zM-306.8 296.7c-1 0-1.7-.3-2.2-.9s-.8-1.4-.8-2.4.3-1.9.8-2.4 1.3-.9 2.2-.9c.7 0 1.4.2 1.9.6s.8.9.9 1.6l-1.7.1c0-.3-.2-.6-.4-.8s-.5-.3-.8-.3c-.8 0-1.3.7-1.3 2.1 0 1.5.4 2.2 1.3 2.2.3 0 .6-.1.8-.3s.3-.5.4-.9l1.7.1c-.1.4-.2.8-.5 1.2s-.6.6-1 .8-.8.2-1.3.2zM-301.2 296.7c-.5 0-.9-.1-1.1-.4s-.4-.7-.4-1.2v-3.7h-.8v-1.1h.9l.5-1.5h1v1.5h1.2v1.1h-1.2v3.3c0 .3.1.5.2.7s.3.2.5.2c.1 0 .3 0 .6-.1v1c-.4.1-.9.2-1.4.2zM-326.5 307.1l-3.6-6.4c.1.6.1 1.1.1 1.5v4.9h-1.5v-8.3h2l3.7 6.4c-.1-.6-.1-1.1-.1-1.6v-4.8h1.5v8.3h-2.1zM-316.8 303.9c0 1-.3 1.8-.9 2.4s-1.4.9-2.4.9-1.8-.3-2.3-.9-.8-1.4-.8-2.4.3-1.8.8-2.4 1.3-.9 2.4-.9c1 0 1.8.3 2.4.8s.8 1.5.8 2.5zm-1.7 0c0-.8-.1-1.3-.4-1.6s-.6-.5-1.1-.5c-1 0-1.5.7-1.5 2.2 0 .7.1 1.2.4 1.6s.6.6 1.1.6c1-.1 1.5-.8 1.5-2.3zM-313.9 307.2c-.5 0-.9-.1-1.1-.4s-.4-.7-.4-1.2v-3.7h-.8v-1.1h.9l.5-1.5h1v1.5h1.2v1.1h-1.2v3.3c0 .3.1.5.2.7s.3.2.5.2c.1 0 .3 0 .6-.1v1c-.4.1-.8.2-1.4.2zM-308.9 307.2c-1 0-1.7-.3-2.2-.8s-.8-1.4-.8-2.5c0-1 .3-1.9.8-2.4s1.3-.8 2.2-.8c.9 0 1.6.3 2.1.9s.7 1.5.7 2.7h-4.1c0 .6.1 1.1.3 1.4s.6.5 1 .5c.6 0 .9-.3 1.1-.8l1.6.1c-.4 1.1-1.3 1.7-2.7 1.7zm0-5.5c-.4 0-.7.1-.9.4s-.3.6-.3 1.1h2.5c0-.5-.2-.9-.4-1.2s-.5-.3-.9-.3z"/><path class="st0" d="M-304.8 307.1v-1.8h1.7v1.8h-1.7z"/></g><g id="Layer_3"><path id="XMLID_59_" class="st0" d="M-349.4 302.4c.3-1.4.9-2.6 1.7-3.6.5-.7 1-1.3 1.4-2 .9-1.9.2-4.4-1.7-5.6-1.9-1.2-4.4-.9-5.8.8-1.5 1.8-1.5 4-.1 5.9.8 1 1.4 2.2 2.1 3.3.2.3.3.7.4 1.3h-1.7c-.1 0-.3-.2-.3-.4-.6-1-1.2-2.1-1.9-3.1-1.5-2.1-1.8-4.3-.7-6.6 1.1-2.2 2.9-3.5 5.4-3.6 2.6-.1 4.6 1 5.9 3.3 1.2 2.2 1 4.5-.4 6.6-.8 1.2-1.5 2.4-2.2 3.6-.1.1-.2.2-.4.2-.7-.1-1.2-.1-1.7-.1z"/><path id="XMLID_58_" class="st0" d="M-347.7 303.5c.4 1.4-.2 2.4-1 3.4h-3.5c-.9-1-1.5-2-1-3.4h5.5z"/><path id="XMLID_57_" class="st0" d="M-357.2 298.3c.1 0 .1 0 .1.1 1 1.4 1 1.4-.5 2.2-.6.3-1.2.7-1.8 1-.5.3-.9.2-1.1-.3-.3-.6-.3-.9.2-1.2 1.1-.6 2.1-1.2 3.1-1.8z"/><path id="XMLID_56_" class="st0" d="M-343.9 298.3c1.1.6 2.1 1.2 3.2 1.8.5.3.5.7.2 1.1-.3.4-.5.7-1.1.4-1-.6-2-1.1-2.9-1.7-.1-.1-.2-.4-.1-.5.1-.3.4-.7.7-1.1z"/><path id="XMLID_55_" class="st0" d="M-358 294.6c0 .6.1 1.2.1 1.7h-3.5c-.6 0-.7-.4-.7-.9s.1-.8.7-.9c1.2.1 2.3.1 3.4.1z"/><path id="XMLID_54_" class="st0" d="M-343.2 296.4c0-.6.1-1.1.1-1.7h3.4c.6 0 .6.5.6 1 0 .4-.2.8-.6.8-1.2-.1-2.4-.1-3.5-.1z"/><path id="XMLID_53_" class="st0" d="M-356.7 290.9c-.3.6-.5 1.1-.8 1.6-1-.6-1.9-1.1-2.9-1.7-.5-.3-.2-.7 0-1.1.2-.4.5-.6.9-.4.9.5 1.8 1 2.8 1.6z"/><path id="XMLID_52_" class="st0" d="M-343.5 292.5c-.3-.6-.5-1.1-.8-1.6.9-.5 1.9-1.1 2.8-1.6.5-.2.7.1.9.5.2.4.3.8-.1 1-.9.6-1.8 1.1-2.8 1.7z"/><path id="XMLID_51_" class="st0" d="M-354 295c.1-2 1.5-3.4 3.2-3.5.4 0 .8.1.8.6 0 .4-.3.6-.7.7-1.3.2-2 .8-2.2 2.1-.1.4-.2.8-.7.7-.1-.2-.3-.5-.4-.6z"/></g></svg>